<svg width="19" height="22" viewBox="0 0 19 22" fill="none" xmlns="http://www.w3.org/2000/svg">
<path d="M0.546143 19.5678C0.546143 20.6594 1.43176 21.545 2.52334 21.545H17.0228C18.1143 21.545 18.9999 20.6594 18.9999 19.5678V8.36374H0.546143V19.5678ZM13.7274 11.4943C13.7274 11.2224 13.9499 11 14.2217 11H15.8694C16.1413 11 16.3637 11.2224 16.3637 11.4943V13.142C16.3637 13.4138 16.1413 13.6363 15.8694 13.6363H14.2217C13.9499 13.6363 13.7274 13.4138 13.7274 13.142V11.4943ZM13.7274 16.7668C13.7274 16.4949 13.9499 16.2725 14.2217 16.2725H15.8694C16.1413 16.2725 16.3637 16.4949 16.3637 16.7668V18.4145C16.3637 18.6863 16.1413 18.9088 15.8694 18.9088H14.2217C13.9499 18.9088 13.7274 18.6863 13.7274 18.4145V16.7668ZM8.45491 11.4943C8.45491 11.2224 8.67735 11 8.94921 11H10.5969C10.8687 11 11.0912 11.2224 11.0912 11.4943V13.142C11.0912 13.4138 10.8687 13.6363 10.5969 13.6363H8.94921C8.67735 13.6363 8.45491 13.4138 8.45491 13.142V11.4943ZM8.45491 16.7668C8.45491 16.4949 8.67735 16.2725 8.94921 16.2725H10.5969C10.8687 16.2725 11.0912 16.4949 11.0912 16.7668V18.4145C11.0912 18.6863 10.8687 18.9088 10.5969 18.9088H8.94921C8.67735 18.9088 8.45491 18.6863 8.45491 18.4145V16.7668ZM3.1824 11.4943C3.1824 11.2224 3.40483 11 3.6767 11H5.32436C5.59622 11 5.81866 11.2224 5.81866 11.4943V13.142C5.81866 13.4138 5.59622 13.6363 5.32436 13.6363H3.6767C3.40483 13.6363 3.1824 13.4138 3.1824 13.142V11.4943ZM3.1824 16.7668C3.1824 16.4949 3.40483 16.2725 3.6767 16.2725H5.32436C5.59622 16.2725 5.81866 16.4949 5.81866 16.7668V18.4145C5.81866 18.6863 5.59622 18.9088 5.32436 18.9088H3.6767C3.40483 18.9088 3.1824 18.6863 3.1824 18.4145V16.7668ZM17.0228 3.09123H15.0456V1.11404C15.0456 0.75155 14.749 0.454971 14.3865 0.454971H13.0684C12.7059 0.454971 12.4093 0.75155 12.4093 1.11404V3.09123H7.13679V1.11404C7.13679 0.75155 6.84021 0.454971 6.47772 0.454971H5.15959C4.79711 0.454971 4.50053 0.75155 4.50053 1.11404V3.09123H2.52334C1.43176 3.09123 0.546143 3.97685 0.546143 5.06842V7.04561H18.9999V5.06842C18.9999 3.97685 18.1143 3.09123 17.0228 3.09123Z" fill="#2668C5"/>
</svg>
