<svg width="41" height="40" viewBox="0 0 41 40" fill="none" xmlns="http://www.w3.org/2000/svg">
<path d="M20.5 25V25.0167" stroke="white" stroke-width="3.33333" stroke-linecap="round" stroke-linejoin="round"/>
<path d="M20.5 15V18.3333" stroke="white" stroke-width="3.33333" stroke-linecap="round" stroke-linejoin="round"/>
<path d="M8.83333 31.6667H32.1667C32.7105 31.6629 33.2452 31.526 33.724 31.2681C34.2028 31.0102 34.6112 30.6391 34.9137 30.1871C35.2161 29.7351 35.4034 29.2159 35.4591 28.6749C35.5148 28.1339 35.4373 27.5875 35.2333 27.0833L23.4 6.66667C23.1117 6.14566 22.6892 5.71138 22.1763 5.40898C21.6633 5.10657 21.0788 4.94708 20.4833 4.94708C19.8879 4.94708 19.3033 5.10657 18.7904 5.40898C18.2775 5.71138 17.8549 6.14566 17.5667 6.66667L5.73333 27.0833C5.53324 27.576 5.45389 28.1093 5.50192 28.6388C5.54995 29.1684 5.72396 29.6788 6.00942 30.1273C6.29488 30.5759 6.68352 30.9497 7.14288 31.2175C7.60224 31.4853 8.11899 31.6393 8.65 31.6667" stroke="white" stroke-width="3.33333" stroke-linecap="round" stroke-linejoin="round"/>
</svg>
