<svg width="27" height="20" viewBox="0 0 27 20" fill="none" xmlns="http://www.w3.org/2000/svg">
<path d="M13.5 0C6.04406 0 0 5.7002 0 12.7319C0 15.0661 0.667969 17.2527 1.83094 19.1333C2.09391 19.5586 2.595 19.8052 3.11719 19.8052H23.8828C24.405 19.8052 24.9061 19.5586 25.1691 19.1333C26.332 17.2527 27 15.0661 27 12.7319C27 5.7002 20.9559 0 13.5 0ZM13.5 2.82932C14.1895 2.82932 14.7459 3.27715 14.9213 3.87484C14.8692 3.97475 14.7975 4.06184 14.7595 4.16971L14.3273 5.39295C14.0869 5.54724 13.8131 5.65864 13.5005 5.65864C12.6722 5.65864 12.0005 5.02514 12.0005 4.24398C12.0005 3.46282 12.6717 2.82932 13.5 2.82932ZM4.5 15.5613C3.67172 15.5613 3 14.9278 3 14.1466C3 13.3654 3.67172 12.7319 4.5 12.7319C5.32828 12.7319 6 13.3654 6 14.1466C6 14.9278 5.32828 15.5613 4.5 15.5613ZM6.75 8.48796C5.92172 8.48796 5.25 7.85446 5.25 7.0733C5.25 6.29214 5.92172 5.65864 6.75 5.65864C7.57828 5.65864 8.25 6.29214 8.25 7.0733C8.25 7.85446 7.57828 8.48796 6.75 8.48796ZM18.3173 5.28685L15.4425 13.4211C16.0842 13.9402 16.5 14.701 16.5 15.5613C16.5 16.0794 16.3416 16.5582 16.0837 16.9759H10.9163C10.6584 16.5582 10.5 16.0794 10.5 15.5613C10.5 14.0608 11.7422 12.8456 13.3078 12.7501L16.1831 4.61533C16.3786 4.06007 17.0142 3.75548 17.6063 3.94469C18.1955 4.12992 18.5133 4.73115 18.3173 5.28685ZM19.0045 7.81556L19.732 5.75767C19.8947 5.70064 20.0662 5.65908 20.25 5.65908C21.0783 5.65908 21.75 6.29259 21.75 7.07374C21.75 7.8549 21.0783 8.4884 20.25 8.4884C19.7166 8.48796 19.2708 8.21078 19.0045 7.81556ZM22.5 15.5613C21.6717 15.5613 21 14.9278 21 14.1466C21 13.3654 21.6717 12.7319 22.5 12.7319C23.3283 12.7319 24 13.3654 24 14.1466C24 14.9278 23.3283 15.5613 22.5 15.5613Z" fill="white"/>
</svg>
