<svg width="41" height="40" viewBox="0 0 41 40" fill="none" xmlns="http://www.w3.org/2000/svg">
<path d="M30.5 8.33333H10.5C9.61595 8.33333 8.7681 8.68452 8.14298 9.30964C7.51786 9.93476 7.16667 10.7826 7.16667 11.6667V31.6667C7.16667 32.5507 7.51786 33.3986 8.14298 34.0237C8.7681 34.6488 9.61595 35 10.5 35H30.5C31.3841 35 32.2319 34.6488 32.857 34.0237C33.4821 33.3986 33.8333 32.5507 33.8333 31.6667V11.6667C33.8333 10.7826 33.4821 9.93476 32.857 9.30964C32.2319 8.68452 31.3841 8.33333 30.5 8.33333V8.33333Z" stroke="white" stroke-width="3.33333" stroke-linecap="round" stroke-linejoin="round"/>
<path d="M27.1667 5V11.6667" stroke="white" stroke-width="3.33333" stroke-linecap="round" stroke-linejoin="round"/>
<path d="M13.8333 5V11.6667" stroke="white" stroke-width="3.33333" stroke-linecap="round" stroke-linejoin="round"/>
<path d="M7.16667 18.3333H33.8333" stroke="white" stroke-width="3.33333" stroke-linecap="round" stroke-linejoin="round"/>
<path d="M17.1667 25H13.8333V28.3333H17.1667V25Z" stroke="white" stroke-width="3.33333" stroke-linecap="round" stroke-linejoin="round"/>
</svg>
