<svg width="13" height="13" viewBox="0 0 13 13" fill="none" xmlns="http://www.w3.org/2000/svg">
<path d="M6.12502 12.9354C7.0908 12.9354 7.8742 12.215 7.8742 11.3262H4.37584C4.37584 12.215 5.15924 12.9354 6.12502 12.9354ZM12.0146 9.17098C11.4863 8.64896 10.4978 7.86368 10.4978 5.29134C10.4978 3.33756 9.00814 1.77354 6.99947 1.38982V0.8658C6.99947 0.421487 6.60791 0.0611572 6.12502 0.0611572C5.64213 0.0611572 5.25057 0.421487 5.25057 0.8658V1.38982C3.24189 1.77354 1.75221 3.33756 1.75221 5.29134C1.75221 7.86368 0.76373 8.64896 0.235449 9.17098C0.0713861 9.33316 -0.00134828 9.52703 1.89051e-05 9.71688C0.00302672 10.1293 0.354941 10.5215 0.877753 10.5215H11.3723C11.8951 10.5215 12.2473 10.1293 12.25 9.71688C12.2514 9.52703 12.1787 9.33291 12.0146 9.17098Z" fill="#9BC225"/>
</svg>
