<svg width="15" height="14" viewBox="0 0 15 14" fill="none" xmlns="http://www.w3.org/2000/svg">
<path d="M7.5 0.0611572C3.35685 0.0611572 0 3.1481 0 6.9581C0 10.7681 3.35685 13.855 7.5 13.855C11.6431 13.855 15 10.7681 15 6.9581C15 3.1481 11.6431 0.0611572 7.5 0.0611572ZM10.2971 8.76577L9.69224 9.46102C9.65254 9.50666 9.60347 9.54466 9.5478 9.57285C9.49214 9.60104 9.43098 9.61887 9.36783 9.62533C9.30467 9.63179 9.24075 9.62674 9.17971 9.61048C9.11867 9.59421 9.06172 9.56705 9.0121 9.53055L6.98589 8.14782C6.84431 8.04359 6.73004 7.91141 6.65151 7.76107C6.57299 7.61074 6.53224 7.44609 6.53226 7.27931V2.95342C6.53226 2.83541 6.58324 2.72223 6.67398 2.63879C6.76472 2.55534 6.8878 2.50846 7.01613 2.50846H7.98387C8.1122 2.50846 8.23528 2.55534 8.32602 2.63879C8.41676 2.72223 8.46774 2.83541 8.46774 2.95342V6.9581L10.2218 8.14004C10.2714 8.17656 10.3128 8.22172 10.3434 8.27294C10.3741 8.32416 10.3934 8.38044 10.4004 8.43855C10.4074 8.49666 10.4019 8.55547 10.3842 8.61162C10.3664 8.66776 10.3368 8.72014 10.2971 8.76577Z" fill="#9BC225"/>
</svg>
