<svg width="22" height="22" viewBox="0 0 22 22" fill="none" xmlns="http://www.w3.org/2000/svg">
<path d="M11 0C4.92339 0 0 4.92339 0 11C0 17.0766 4.92339 22 11 22C17.0766 22 22 17.0766 22 11C22 4.92339 17.0766 0 11 0ZM10.2903 14.5484C10.2903 14.9387 9.97097 15.2581 9.58064 15.2581H7.45161C7.06129 15.2581 6.74194 14.9387 6.74194 14.5484V7.45161C6.74194 7.06129 7.06129 6.74194 7.45161 6.74194H9.58064C9.97097 6.74194 10.2903 7.06129 10.2903 7.45161V14.5484ZM15.2581 14.5484C15.2581 14.9387 14.9387 15.2581 14.5484 15.2581H12.4194C12.029 15.2581 11.7097 14.9387 11.7097 14.5484V7.45161C11.7097 7.06129 12.029 6.74194 12.4194 6.74194H14.5484C14.9387 6.74194 15.2581 7.06129 15.2581 7.45161V14.5484Z" fill="#2668C5"/>
</svg>
