<svg width="41" height="40" viewBox="0 0 41 40" fill="none" xmlns="http://www.w3.org/2000/svg">
<path d="M11.3333 11.6667H29.6667" stroke="white" stroke-width="3.33333" stroke-linecap="round" stroke-linejoin="round"/>
<path d="M11.3333 28.3333H29.6667" stroke="white" stroke-width="3.33333" stroke-linecap="round" stroke-linejoin="round"/>
<path d="M10.5 33.3333V30C10.5 27.3478 11.5536 24.8043 13.4289 22.9289C15.3043 21.0536 17.8478 20 20.5 20C23.1522 20 25.6957 21.0536 27.5711 22.9289C29.4464 24.8043 30.5 27.3478 30.5 30V33.3333C30.5 33.7754 30.3244 34.1993 30.0118 34.5118C29.6993 34.8244 29.2754 35 28.8333 35H12.1667C11.7246 35 11.3007 34.8244 10.9882 34.5118C10.6756 34.1993 10.5 33.7754 10.5 33.3333Z" stroke="white" stroke-width="3.33333" stroke-linecap="round" stroke-linejoin="round"/>
<path d="M10.5 6.66667V10C10.5 12.6522 11.5536 15.1957 13.4289 17.0711C15.3043 18.9464 17.8478 20 20.5 20C23.1522 20 25.6957 18.9464 27.5711 17.0711C29.4464 15.1957 30.5 12.6522 30.5 10V6.66667C30.5 6.22464 30.3244 5.80072 30.0118 5.48816C29.6993 5.17559 29.2754 5 28.8333 5H12.1667C11.7246 5 11.3007 5.17559 10.9882 5.48816C10.6756 5.80072 10.5 6.22464 10.5 6.66667V6.66667Z" stroke="white" stroke-width="3.33333" stroke-linecap="round" stroke-linejoin="round"/>
</svg>
