<svg width="26" height="19" viewBox="0 0 26 19" fill="none" xmlns="http://www.w3.org/2000/svg">
<path d="M25.1452 9.94842L16.8341 17.9444C16.092 18.6584 14.8058 18.1586 14.8058 17.1353V12.5662H8.07775C7.41979 12.5662 6.89045 12.0569 6.89045 11.4239V6.85473C6.89045 6.22171 7.41979 5.71245 8.07775 5.71245H14.8058V1.1433C14.8058 0.12476 16.0871 -0.37975 16.8341 0.334179L25.1452 8.33018C25.6053 8.77758 25.6053 9.50103 25.1452 9.94842ZM10.0566 17.7065V15.8026C10.0566 15.4885 9.78944 15.2315 9.46294 15.2315H5.30738C4.43174 15.2315 3.72431 14.5509 3.72431 13.7085V4.57016C3.72431 3.72772 4.43174 3.04711 5.30738 3.04711H9.46294C9.78944 3.04711 10.0566 2.7901 10.0566 2.47597V0.572156C10.0566 0.258027 9.78944 0.00101228 9.46294 0.00101228H5.30738C2.68542 0.00101228 0.558167 2.04761 0.558167 4.57016V13.7085C0.558167 16.231 2.68542 18.2776 5.30738 18.2776H9.46294C9.78944 18.2776 10.0566 18.0206 10.0566 17.7065Z" fill="white"/>
</svg>
