<svg width="27" height="19" viewBox="0 0 27 19" fill="none" xmlns="http://www.w3.org/2000/svg">
<path d="M5.78836 4.56991H20.2593V13.7097H5.78836V4.56991ZM23.877 9.13981C23.877 10.4018 24.8488 11.4248 26.0476 11.4248V15.9947C26.0476 17.2566 25.0758 18.2796 23.877 18.2796H2.17063C0.971811 18.2796 0 17.2566 0 15.9947V11.4248C1.19882 11.4248 2.17063 10.4018 2.17063 9.13981C2.17063 7.87785 1.19882 6.85486 0 6.85486V2.28495C0 1.02299 0.971811 0 2.17063 0H23.877C25.0758 0 26.0476 1.02299 26.0476 2.28495V6.85486C24.8488 6.85486 23.877 7.87785 23.877 9.13981ZM21.7063 4.18908C21.7063 3.5581 21.2204 3.0466 20.621 3.0466H5.42659C4.82718 3.0466 4.34127 3.5581 4.34127 4.18908V14.0905C4.34127 14.7215 4.82718 15.233 5.42659 15.233H20.621C21.2204 15.233 21.7063 14.7215 21.7063 14.0905V4.18908Z" fill="white"/>
</svg>
