<svg width="25" height="25" viewBox="0 0 25 25" fill="none" xmlns="http://www.w3.org/2000/svg">
<path d="M12.5 0C5.59476 0 0 5.38263 0 12.0261C0 18.6695 5.59476 24.0521 12.5 24.0521C19.4052 24.0521 25 18.6695 25 12.0261C25 5.38263 19.4052 0 12.5 0ZM17.1618 15.1781L16.1537 16.3904C16.0876 16.4699 16.0058 16.5362 15.913 16.5854C15.8202 16.6345 15.7183 16.6656 15.613 16.6769C15.5078 16.6881 15.4012 16.6793 15.2995 16.651C15.1978 16.6226 15.1029 16.5752 15.0202 16.5116L11.6431 14.1006C11.4072 13.9188 11.2167 13.6883 11.0859 13.4262C10.955 13.1641 10.8871 12.877 10.8871 12.5862V5.04319C10.8871 4.83741 10.9721 4.64007 11.1233 4.49456C11.2745 4.34906 11.4797 4.26731 11.6935 4.26731H13.3065C13.5203 4.26731 13.7255 4.34906 13.8767 4.49456C14.0279 4.64007 14.1129 4.83741 14.1129 5.04319V12.0261L17.0363 14.087C17.119 14.1507 17.1879 14.2294 17.239 14.3187C17.2901 14.408 17.3224 14.5062 17.3341 14.6075C17.3457 14.7088 17.3365 14.8114 17.3069 14.9093C17.2774 15.0072 17.2281 15.0985 17.1618 15.1781Z" fill="white"/>
</svg>
